<svg xmlns="http://www.w3.org/2000/svg" viewBox="0 0 484 325"><defs><style>.cls-1{fill:#1d1d1b;}</style></defs><title>Datový zdroj 1</title><g id="Vrstva_2" data-name="Vrstva 2"><g id="Vrstva_1-2" data-name="Vrstva 1"><path class="cls-1" d="M209.1,94.9H344.5a28.72,28.72,0,0,1,28.72,28.72V306.14A12.21,12.21,0,0,1,361,318.35H192.6a12.21,12.21,0,0,1-12.21-12.21V123.62A28.72,28.72,0,0,1,209.1,94.9Z"/><path class="cls-1" d="M347.73,88.24H205.87a32.19,32.19,0,0,0-32.14,32.15V307.51A17.51,17.51,0,0,0,191.23,325H362.37a17.51,17.51,0,0,0,17.5-17.49V120.39A32.19,32.19,0,0,0,347.73,88.24Zm18.83,219.27a4.19,4.19,0,0,1-4.19,4.18H191.23a4.18,4.18,0,0,1-4.18-4.18V120.39a18.85,18.85,0,0,1,18.82-18.83H347.73a18.86,18.86,0,0,1,18.83,18.83Z"/><path class="cls-1" d="M265.39,88.24H290.3Q290,91.48,290,94.9H265.18Q265.18,91.53,265.39,88.24Z"/><path class="cls-1" d="M373.21,240.29q3.41,0,6.66-.15V265c-2.18.08-4.4.11-6.66.11Z"/><path class="cls-1" d="M484,149.41c0,38.87-10,68.46-29.74,88-15.81,15.62-37.8,24.72-65.51,27.12v-25c20.74-2.14,36.86-8.78,48-19.84,14.84-14.65,22.36-38.29,22.36-70.27,0-24.7-3.2-59.76-18.41-86.54-14.53-25.58-36.62-38-67.53-38-34.23,0-73.61,14.61-81.68,54.51H266.32a85.93,85.93,0,0,1,31.47-55.15C317.05,8.59,343.84,0,373.21,0c39.52,0,70.34,17.5,89.14,50.6C480.24,82.1,484,121.72,484,149.41Z"/><polygon class="cls-1" points="180.39 187.08 180.39 252.71 173.73 246.26 85.31 160.53 57.21 132.43 90.1 99.54 173.73 180.63 180.39 187.08"/><polygon class="cls-1" points="82.83 87.97 45.86 124.95 0 105.77 63.65 42.12 82.83 87.97"/></g></g></svg>